<svg width="776" height="467" viewBox="0 0 776 467" fill="none" xmlns="http://www.w3.org/2000/svg">
<path d="M697.15 144.747H615.388V495.048H697.15V144.747Z" fill="#263238" stroke="#263238" stroke-miterlimit="10"/>
<path d="M722.104 144.747H640.342V495.048H722.104V144.747Z" fill="white" stroke="#263238" stroke-miterlimit="10"/>
<path d="M512.966 266.101H431.203V495.048H512.966V266.101Z" fill="#263238" stroke="#263238" stroke-miterlimit="10"/>
<path d="M537.92 266.101H456.157V495.048H537.92V266.101Z" fill="white" stroke="#263238" stroke-miterlimit="10"/>
<path d="M321.894 334.954H240.131V495.036H321.894V334.954Z" fill="#263238" stroke="#263238" stroke-miterlimit="10"/>
<path d="M346.848 334.954H265.085V495.036H346.848V334.954Z" fill="white" stroke="#263238" stroke-miterlimit="10"/>
<path d="M380.59 84.4265C380.59 84.4265 376.062 63.4168 360.246 58.0826C344.43 52.7485 340.66 63.4168 336.143 69.3929C331.626 75.3689 324.845 66.3698 315.052 69.3929C305.259 72.4159 309.017 80.6914 302.995 83.7028C296.972 86.7142 286.42 79.9327 279.65 85.2085C272.881 90.4842 271.363 95.0013 271.363 95.0013H414.486C414.486 95.0013 391.889 73.9216 380.59 84.4265Z" fill="white" stroke="#263238" stroke-miterlimit="10"/>
<path d="M637.42 193.841C637.42 193.841 632.903 172.749 617.076 167.485C601.249 162.221 597.49 172.749 592.973 178.784C588.456 184.818 581.675 175.772 571.882 178.784C562.089 181.795 565.859 190.082 559.825 193.094C553.79 196.105 543.25 189.323 536.481 194.599C529.711 199.875 528.193 204.392 528.193 204.392H671.316C671.316 204.392 648.719 183.301 637.42 193.841Z" fill="white" stroke="#263238" stroke-miterlimit="10"/>
<path d="M672.427 85.418H662.961V143.965H672.427V85.418Z" fill="#FFC100" stroke="#263238" stroke-miterlimit="10"/>
<path d="M648.138 84.6242C636.652 84.6242 627.63 81.0525 621.292 74.026C609.877 61.3034 611.826 41.9628 611.954 41.1458C612.05 40.2854 612.46 39.4907 613.107 38.9152C613.753 38.3397 614.59 38.0241 615.456 38.0294H646.434V45.0326H622.412C621.932 45.0315 621.457 45.1292 621.016 45.3196C620.575 45.51 620.179 45.789 619.85 46.1393C619.522 46.4896 619.269 46.9037 619.107 47.3558C618.946 47.808 618.879 48.2886 618.911 48.7676C619.343 54.6737 621 63.1943 626.556 69.3805C631.482 74.843 638.742 77.6209 648.138 77.6209V84.6242Z" fill="#FFC100" stroke="#263238" stroke-miterlimit="10"/>
<path d="M687.262 84.6242C698.747 84.6242 707.77 81.0525 714.107 74.026C725.523 61.3034 723.573 41.9628 723.445 41.1458C723.35 40.2854 722.939 39.4907 722.293 38.9152C721.646 38.3397 720.809 38.0241 719.943 38.0294H688.977V45.0326H712.987C713.467 45.0315 713.942 45.1292 714.383 45.3196C714.824 45.51 715.221 45.789 715.549 46.1393C715.878 46.4896 716.131 46.9037 716.292 47.3558C716.454 47.808 716.521 48.2886 716.489 48.7676C716.068 54.6737 714.411 63.1943 708.843 69.3805C703.929 74.843 696.669 77.6209 687.273 77.6209L687.262 84.6242Z" fill="#FFC100" stroke="#263238" stroke-miterlimit="10"/>
<path d="M641.251 31.2012H693.775V71.3414C693.775 78.2724 691.022 84.9197 686.121 89.8207C681.22 94.7217 674.573 97.4751 667.642 97.4751H667.396C660.465 97.4751 653.818 94.7217 648.917 89.8207C644.016 84.9197 641.263 78.2724 641.263 71.3414V31.2012H641.251Z" fill="#FFC100" stroke="#263238" stroke-miterlimit="10"/>
<path d="M688.675 31.2012V70.0691C688.675 83.5503 677.785 94.5804 664.059 95.3274C664.557 95.3274 665.058 95.3274 665.564 95.3274C680.003 95.3274 691.698 84.0055 691.698 70.0341V31.2012H688.675Z" fill="#263238"/>
<path d="M646.48 31.2012V69.8473C646.48 83.2468 656.132 94.1952 668.295 94.9539C667.851 94.9539 667.408 94.9539 666.952 94.9539C654.171 94.9539 643.807 83.6904 643.807 69.8006V31.2012H646.48Z" fill="white"/>
<path d="M693.752 31.2012H641.251V42.6981H693.752V31.2012Z" fill="#FFC100" stroke="#263238" stroke-miterlimit="10"/>
<path d="M672.941 110.175H662.821C661.448 110.175 660.335 111.288 660.335 112.661V123.224C660.335 124.597 661.448 125.71 662.821 125.71H672.941C674.314 125.71 675.427 124.597 675.427 123.224V112.661C675.427 111.288 674.314 110.175 672.941 110.175Z" fill="#FFC100" stroke="#263238" stroke-miterlimit="10"/>
<path d="M697.93 144.654C697.278 142.876 696.096 141.34 694.543 140.254C692.99 139.169 691.141 138.586 689.246 138.585H646.503C644.609 138.586 642.76 139.169 641.207 140.254C639.654 141.34 638.472 142.876 637.819 144.654H697.93Z" fill="#FFC100" stroke="#263238" stroke-miterlimit="10"/>
<path d="M650.566 36.9212C650.568 36.4793 650.439 36.0466 650.195 35.6782C649.951 35.3098 649.603 35.0223 649.195 34.8521C648.787 34.6819 648.338 34.6368 647.905 34.7224C647.471 34.8081 647.073 35.0207 646.76 35.3331C646.448 35.6456 646.235 36.0439 646.15 36.4775C646.064 36.911 646.109 37.3602 646.279 37.7681C646.45 38.1759 646.737 38.5239 647.105 38.768C647.474 39.0121 647.906 39.1412 648.348 39.1389C648.937 39.1389 649.501 38.9052 649.917 38.4893C650.332 38.0734 650.566 37.5093 650.566 36.9212Z" fill="#FFC100" stroke="#263238" stroke-miterlimit="10"/>
<path d="M660.335 36.9212C660.337 36.4798 660.208 36.0476 659.965 35.6795C659.721 35.3113 659.374 35.0238 658.967 34.8532C658.559 34.6827 658.111 34.6369 657.678 34.7216C657.244 34.8063 656.846 35.0177 656.533 35.329C656.22 35.6403 656.007 36.0375 655.92 36.4703C655.833 36.9031 655.876 37.3519 656.045 37.76C656.213 38.168 656.499 38.5169 656.866 38.7624C657.232 39.0078 657.664 39.1389 658.105 39.1389C658.695 39.1389 659.26 38.9056 659.678 38.4901C660.095 38.0745 660.332 37.5104 660.335 36.9212Z" fill="#FFC100" stroke="#263238" stroke-miterlimit="10"/>
<path d="M670.094 36.9208C670.094 36.4822 669.964 36.0534 669.72 35.6887C669.476 35.324 669.13 35.0398 668.725 34.8719C668.319 34.7041 667.873 34.6602 667.443 34.7457C667.013 34.8313 666.618 35.0425 666.308 35.3527C665.998 35.6628 665.786 36.058 665.701 36.4882C665.615 36.9184 665.659 37.3643 665.827 37.7695C665.995 38.1747 666.279 38.5211 666.644 38.7648C667.009 39.0084 667.437 39.1385 667.876 39.1385C668.464 39.1385 669.028 38.9049 669.444 38.489C669.86 38.0731 670.094 37.509 670.094 36.9208Z" fill="#FFC100" stroke="#263238" stroke-miterlimit="10"/>
<path d="M679.875 36.9208C679.875 36.4822 679.745 36.0534 679.501 35.6887C679.257 35.324 678.911 35.0398 678.506 34.8719C678.101 34.7041 677.655 34.6602 677.224 34.7457C676.794 34.8313 676.399 35.0425 676.089 35.3527C675.779 35.6628 675.568 36.058 675.482 36.4882C675.397 36.9184 675.44 37.3643 675.608 37.7695C675.776 38.1747 676.06 38.5211 676.425 38.7648C676.79 39.0084 677.219 39.1385 677.657 39.1385C678.245 39.1385 678.809 38.9049 679.225 38.489C679.641 38.0731 679.875 37.509 679.875 36.9208Z" fill="#FFC100" stroke="#263238" stroke-miterlimit="10"/>
<path d="M689.632 36.9212C689.634 36.4793 689.505 36.0466 689.261 35.6782C689.017 35.3098 688.669 35.0223 688.261 34.8521C687.853 34.6819 687.404 34.6368 686.97 34.7224C686.537 34.8081 686.138 35.0207 685.826 35.3331C685.513 35.6456 685.301 36.0439 685.215 36.4775C685.129 36.911 685.175 37.3602 685.345 37.7681C685.515 38.1759 685.803 38.5239 686.171 38.768C686.539 39.0121 686.972 39.1412 687.414 39.1389C688.002 39.1389 688.566 38.9052 688.982 38.4893C689.398 38.0734 689.632 37.5093 689.632 36.9212Z" fill="#FFC100" stroke="#263238" stroke-miterlimit="10"/>
<path d="M683.827 69.8679C686.148 60.8203 680.696 51.6039 671.648 49.2826C662.6 46.9612 653.384 52.4139 651.063 61.4616C648.741 70.5092 654.194 79.7256 663.242 82.0469C672.289 84.3683 681.506 78.9156 683.827 69.8679Z" fill="#263238" stroke="#263238" stroke-miterlimit="10"/>
<path d="M670.77 74.6564H667.268V61.6887C665.996 62.8736 664.477 63.7625 662.821 64.2916V61.1635C663.927 60.7904 664.958 60.2254 665.868 59.4944C666.856 58.7691 667.61 57.7712 668.039 56.623H670.828L670.77 74.6564Z" fill="white"/>
<path d="M668.178 0.0488281V20.3932" stroke="#263238" stroke-miterlimit="10"/>
<path d="M580.871 61.9219H601.215" stroke="#263238" stroke-miterlimit="10"/>
<path d="M625.634 102.787L628.75 99.6587" stroke="#263238" stroke-miterlimit="10"/>
<path d="M614.359 114.05L622.6 105.809" stroke="#263238" stroke-miterlimit="10"/>
<path d="M721.87 108.833L712.695 99.6587" stroke="#263238" stroke-miterlimit="10"/>
<path d="M727.075 114.05L724.449 111.423" stroke="#263238" stroke-miterlimit="10"/>
<path d="M626.077 25.7622L628.75 28.4351" stroke="#263238" stroke-miterlimit="10"/>
<path d="M614.359 14.0439L623.312 22.9964" stroke="#263238" stroke-miterlimit="10"/>
<path d="M727.075 14.0439L712.695 28.4356" stroke="#263238" stroke-miterlimit="10"/>
<path d="M748.984 61.9219H752.941" stroke="#263238" stroke-miterlimit="10"/>
<path d="M732.597 61.9219H745.027" stroke="#263238" stroke-miterlimit="10"/>
</svg>
