<svg width="40" height="40" viewBox="0 0 40 40" fill="none" xmlns="http://www.w3.org/2000/svg">
<path d="M20.25 27.4991V30.9991" stroke="black" stroke-width="2" stroke-linecap="round" stroke-linejoin="round"/>
<path d="M11.917 36.6658H28.5837V34.9992C28.5837 33.1658 27.0837 31.6658 25.2503 31.6658H15.2503C13.417 31.6658 11.917 33.1658 11.917 34.9992V36.6658Z" stroke="black" stroke-width="2" stroke-miterlimit="10"/>
<path d="M10.2497 36.6657H30.2497M19.9997 26.6657C13.5497 26.6657 8.33301 21.449 8.33301 14.999V9.999C8.33301 6.31567 11.3163 3.33234 14.9997 3.33234H24.9997C28.683 3.33234 31.6663 6.31567 31.6663 9.999V14.999C31.6663 21.449 26.4497 26.6657 19.9997 26.6657Z" stroke="black" stroke-width="2" stroke-linecap="round" stroke-linejoin="round"/>
<path d="M9.11706 19.4158C7.86706 19.0158 6.76706 18.2824 5.90039 17.4158C4.40039 15.7491 3.40039 13.7491 3.40039 11.4158C3.40039 9.08242 5.23372 7.24908 7.56706 7.24908H8.65039C8.31706 8.01575 8.15039 8.86575 8.15039 9.74908V14.7491C8.15039 16.4158 8.50039 17.9824 9.11706 19.4158ZM30.8837 19.4158C32.1337 19.0158 33.2337 18.2824 34.1004 17.4158C35.6004 15.7491 36.6004 13.7491 36.6004 11.4158C36.6004 9.08242 34.7671 7.24908 32.4337 7.24908H31.3504C31.6837 8.01575 31.8504 8.86575 31.8504 9.74908V14.7491C31.8504 16.4158 31.5004 17.9824 30.8837 19.4158Z" stroke="black" stroke-width="2" stroke-linecap="round" stroke-linejoin="round"/>
</svg>
