<svg width="26" height="27" viewBox="0 0 26 27" fill="none" xmlns="http://www.w3.org/2000/svg">
<g clip-path="url(#clip0_2413_6860)">
<path d="M25.9876 13.7527C25.9876 12.6465 25.8991 11.8393 25.7077 11.0022H13.259V15.9949H20.5661C20.4188 17.2357 19.6233 19.1043 17.8554 20.3599L17.8306 20.527L21.7667 23.621L22.0394 23.6486C24.5438 21.3017 25.9876 17.8486 25.9876 13.7527Z" fill="#4285F4"/>
<path d="M13.259 26.9073C16.8388 26.9073 19.8442 25.7114 22.0394 23.6485L17.8554 20.3598C16.7358 21.1521 15.233 21.7052 13.259 21.7052C9.75273 21.7052 6.77685 19.3583 5.71603 16.1145L5.56053 16.1279L1.46777 19.3418L1.41425 19.4928C3.59459 23.8876 8.07319 26.9073 13.259 26.9073Z" fill="#34A853"/>
<path d="M5.71604 16.1144C5.43613 15.2773 5.27414 14.3803 5.27414 13.4536C5.27414 12.5267 5.43613 11.6298 5.70131 10.7927L5.6939 10.6144L1.54984 7.34888L1.41426 7.41432C0.515633 9.23805 0 11.286 0 13.4536C0 15.6211 0.515633 17.669 1.41426 19.4927L5.71604 16.1144Z" fill="#FBBC05"/>
<path d="M13.259 5.20203C15.7487 5.20203 17.4281 6.29327 18.3857 7.20519L22.1277 3.49794C19.8296 1.33042 16.8388 0 13.259 0C8.07319 0 3.59459 3.01957 1.41425 7.41439L5.7013 10.7928C6.77685 7.54897 9.75273 5.20203 13.259 5.20203Z" fill="#EB4335"/>
</g>
<defs>
<clipPath id="clip0_2413_6860">
<rect width="26" height="27" fill="white"/>
</clipPath>
</defs>
</svg>
