<svg width="40" height="40" viewBox="0 0 40 40" fill="none" xmlns="http://www.w3.org/2000/svg">
<path d="M13.9667 19.9991L17.9833 24.0324L26.0333 15.9658" stroke="black" stroke-width="2" stroke-linecap="round" stroke-linejoin="round"/>
<path d="M17.9167 4.08241C19.0667 3.09908 20.95 3.09908 22.1167 4.08241L24.75 6.34908C25.25 6.78241 26.1833 7.13241 26.85 7.13241H29.6833C31.45 7.13241 32.9 8.58241 32.9 10.3491V13.1824C32.9 13.8324 33.25 14.7824 33.6833 15.2824L35.95 17.9157C36.9333 19.0657 36.9333 20.9491 35.95 22.1157L33.6833 24.7491C33.25 25.2491 32.9 26.1824 32.9 26.8491V29.6824C32.9 31.4491 31.45 32.8991 29.6833 32.8991H26.85C26.2 32.8991 25.25 33.2491 24.75 33.6824L22.1167 35.9491C20.9667 36.9324 19.0833 36.9324 17.9167 35.9491L15.2833 33.6824C14.7833 33.2491 13.85 32.8991 13.1833 32.8991H10.3C8.53333 32.8991 7.08333 31.4491 7.08333 29.6824V26.8324C7.08333 26.1824 6.73333 25.2491 6.31667 24.7491L4.06667 22.0991C3.1 20.9491 3.1 19.0824 4.06667 17.9324L6.31667 15.2824C6.73333 14.7824 7.08333 13.8491 7.08333 13.1991V10.3324C7.08333 8.56574 8.53333 7.11574 10.3 7.11574H13.1833C13.8333 7.11574 14.7833 6.76574 15.2833 6.33241L17.9167 4.08241Z" stroke="black" stroke-width="2" stroke-linecap="round" stroke-linejoin="round"/>
</svg>
